{
  "asset": {
    "version": "2.0",
    "generator": "THREE.GLTFExporter"
  },
  "scenes": [
    {
      "nodes": [
        2
      ]
    }
  ],
  "scene": 0,
  "nodes": [
    {
      "name": "Aset_modular_medieval_M_ugywdfqdw_00_LOD5",
      "mesh": 0
    },
    {
      "name": "Aset_modular_medieval_M_ugywdfqdw_01_LOD5",
      "mesh": 1
    },
    {
      "children": [
        0,
        1
      ]
    }
  ],
  "bufferViews": [
    {
      "buffer": 0,
      "byteOffset": 0,
      "byteLength": 39600,
      "target": 34962,
      "byteStride": 12
    },
    {
      "buffer": 0,
      "byteOffset": 39600,
      "byteLength": 39600,
      "target": 34962,
      "byteStride": 12
    },
    {
      "buffer": 0,
      "byteOffset": 79200,
      "byteLength": 26400,
      "target": 34962,
      "byteStride": 8
    },
    {
      "buffer": 0,
      "byteOffset": 105600,
      "byteLength": 6600,
      "target": 34963
    },
    {
      "buffer": 0,
      "byteOffset": 112200,
      "byteLength": 72000,
      "target": 34962,
      "byteStride": 12
    },
    {
      "buffer": 0,
      "byteOffset": 184200,
      "byteLength": 72000,
      "target": 34962,
      "byteStride": 12
    },
    {
      "buffer": 0,
      "byteOffset": 256200,
      "byteLength": 48000,
      "target": 34962,
      "byteStride": 8
    },
    {
      "buffer": 0,
      "byteOffset": 304200,
      "byteLength": 12000,
      "target": 34963
    }
  ],
  "buffers": [
    {
      "byteLength": 316200,
      "uri": "data:application/octet-stream;base64,"
    }
  ],
  "accessors": [
    {
      "bufferView": 0,
      "componentType": 5126,
      "count": 3300,
      "max": [
        142.64187622070312,
        383.0218200683594,
        -10.35124683380127
      ],
      "min": [
        22.75762939453125,
        1.400014877319336,
        -37.66575241088867
      ],
      "type": "VEC3"
    },
    {
      "bufferView": 1,
      "componentType": 5126,
      "count": 3300,
      "max": [
        0.999995231628418,
        0.9756064414978027,
        0.9999922513961792
      ],
      "min": [
        -0.97560054063797,
        -0.9982680082321167,
        -0.999985933303833
      ],
      "type": "VEC3"
    },
    {
      "bufferView": 2,
      "componentType": 5126,
      "count": 3300,
      "max": [
        0.9828062057495117,
        0.9809544682502747
      ],
      "min": [
        0.0065784454345703125,
        0.001042008399963379
      ],
      "type": "VEC2"
    },
    {
      "bufferView": 3,
      "componentType": 5123,
      "count": 3300,
      "max": [
        3299
      ],
      "min": [
        0
      ],
      "type": "SCALAR"
    },
    {
      "bufferView": 4,
      "componentType": 5126,
      "count": 6000,
      "max": [
        252.8809051513672,
        400.9867858886719,
        25.0336971282959
      ],
      "min": [
        -1.8800621032714844,
        -0.07843486964702606,
        -50.171836853027344
      ],
      "type": "VEC3"
    },
    {
      "bufferView": 5,
      "componentType": 5126,
      "count": 6000,
      "max": [
        0.9999642372131348,
        0.9802865386009216,
        0.9999951124191284
      ],
      "min": [
        -0.9999712109565735,
        -0.9999999403953552,
        -0.9999994039535522
      ],
      "type": "VEC3"
    },
    {
      "bufferView": 6,
      "componentType": 5126,
      "count": 6000,
      "max": [
        0.998927652835846,
        0.9757888317108154
      ],
      "min": [
        -0.00025144219398498535,
        0.0009747892618179321
      ],
      "type": "VEC2"
    },
    {
      "bufferView": 7,
      "componentType": 5123,
      "count": 6000,
      "max": [
        5999
      ],
      "min": [
        0
      ],
      "type": "SCALAR"
    }
  ],
  "materials": [
    {
      "pbrMetallicRoughness": {
        "metallicFactor": 0,
        "roughnessFactor": 1,
        "baseColorTexture": {
          "index": 0
        }
      },
      "normalTexture": {
        "index": 1,
        "scale": 1
      }
    }
  ],
  "textures": [
    {
      "sampler": 0,
      "source": 0
    },
    {
      "sampler": 1,
      "source": 1
    }
  ],
  "samplers": [
    {
      "magFilter": 9729,
      "minFilter": 9987
    },
    {
      "magFilter": 9729,
      "minFilter": 9987
    }
  ],
  "images": [
    {
      "mimeType": "image/jpeg",
      "uri": "data:image/jpeg;base64,"
    },
    {
      "mimeType": "image/jpeg",
      "uri": "data:image/jpeg;base64,"
    }
  ],
  "meshes": [
    {
      "primitives": [
        {
          "mode": 4,
          "attributes": {
            "POSITION": 0,
            "NORMAL": 1,
            "TEXCOORD_0": 2
          },
          "indices": 3,
          "material": 0
        }
      ]
    },
    {
      "primitives": [
        {
          "mode": 4,
          "attributes": {
            "POSITION": 4,
            "NORMAL": 5,
            "TEXCOORD_0": 6
          },
          "indices": 7,
          "material": 0
        }
      ]
    }
  ]
}