{
  "asset": {
    "version": "2.0",
    "generator": "THREE.GLTFExporter"
  },
  "scenes": [
    {
      "nodes": [
        2
      ]
    }
  ],
  "scene": 0,
  "nodes": [
    {
      "name": "Aset_modular_medieval_M_ugywdfqdw_00_LOD4",
      "mesh": 0
    },
    {
      "name": "Aset_modular_medieval_M_ugywdfqdw_01_LOD4",
      "mesh": 1
    },
    {
      "children": [
        0,
        1
      ]
    }
  ],
  "bufferViews": [
    {
      "buffer": 0,
      "byteOffset": 0,
      "byteLength": 111600,
      "target": 34962,
      "byteStride": 12
    },
    {
      "buffer": 0,
      "byteOffset": 111600,
      "byteLength": 111600,
      "target": 34962,
      "byteStride": 12
    },
    {
      "buffer": 0,
      "byteOffset": 223200,
      "byteLength": 74400,
      "target": 34962,
      "byteStride": 8
    },
    {
      "buffer": 0,
      "byteOffset": 297600,
      "byteLength": 18600,
      "target": 34963
    },
    {
      "buffer": 0,
      "byteOffset": 316200,
      "byteLength": 111600,
      "target": 34962,
      "byteStride": 12
    },
    {
      "buffer": 0,
      "byteOffset": 427800,
      "byteLength": 111600,
      "target": 34962,
      "byteStride": 12
    },
    {
      "buffer": 0,
      "byteOffset": 539400,
      "byteLength": 74400,
      "target": 34962,
      "byteStride": 8
    },
    {
      "buffer": 0,
      "byteOffset": 613800,
      "byteLength": 18600,
      "target": 34963
    }
  ],
  "buffers": [
    {
      "byteLength": 632400,
      "uri": "data:application/octet-stream;base64,"
    }
  ],
  "accessors": [
    {
      "bufferView": 0,
      "componentType": 5126,
      "count": 9300,
      "max": [
        142.64187622070312,
        382.9864501953125,
        -10.267498970031738
      ],
      "min": [
        22.430105209350586,
        1.1950905323028564,
        -36.78437423706055
      ],
      "type": "VEC3"
    },
    {
      "bufferView": 1,
      "componentType": 5126,
      "count": 9300,
      "max": [
        0.9999330639839172,
        0.9997506737709045,
        0.9999979138374329
      ],
      "min": [
        -0.9999938607215881,
        -0.991566002368927,
        -0.9999822974205017
      ],
      "type": "VEC3"
    },
    {
      "bufferView": 2,
      "componentType": 5126,
      "count": 9300,
      "max": [
        0.9829367399215698,
        0.9821709990501404
      ],
      "min": [
        0.0065784454345703125,
        0.0009106053039431572
      ],
      "type": "VEC2"
    },
    {
      "bufferView": 3,
      "componentType": 5123,
      "count": 9300,
      "max": [
        9299
      ],
      "min": [
        0
      ],
      "type": "SCALAR"
    },
    {
      "bufferView": 4,
      "componentType": 5126,
      "count": 9300,
      "max": [
        252.85336303710938,
        400.5259704589844,
        24.244731903076172
      ],
      "min": [
        -1.8800621032714844,
        -0.30161166191101074,
        -50.171836853027344
      ],
      "type": "VEC3"
    },
    {
      "bufferView": 5,
      "componentType": 5126,
      "count": 9300,
      "max": [
        0.999983549118042,
        1,
        0.9999986886978149
      ],
      "min": [
        -0.9999629259109497,
        -0.9999998807907104,
        -0.9999992251396179
      ],
      "type": "VEC3"
    },
    {
      "bufferView": 6,
      "componentType": 5126,
      "count": 9300,
      "max": [
        0.9987661242485046,
        0.9736654758453369
      ],
      "min": [
        0.000989288091659546,
        0.0009747892618179321
      ],
      "type": "VEC2"
    },
    {
      "bufferView": 7,
      "componentType": 5123,
      "count": 9300,
      "max": [
        9299
      ],
      "min": [
        0
      ],
      "type": "SCALAR"
    }
  ],
  "materials": [
    {
      "pbrMetallicRoughness": {
        "metallicFactor": 0,
        "roughnessFactor": 1,
        "baseColorTexture": {
          "index": 0
        }
      },
      "normalTexture": {
        "index": 1,
        "scale": 1
      }
    }
  ],
  "textures": [
    {
      "sampler": 0,
      "source": 0
    },
    {
      "sampler": 1,
      "source": 1
    }
  ],
  "samplers": [
    {
      "magFilter": 9729,
      "minFilter": 9987
    },
    {
      "magFilter": 9729,
      "minFilter": 9987
    }
  ],
  "images": [
    {
      "mimeType": "image/jpeg",
      "uri": "data:image/jpeg;base64,"
    },
    {
      "mimeType": "image/jpeg",
      "uri": "data:image/jpeg;base64,"
    }
  ],
  "meshes": [
    {
      "primitives": [
        {
          "mode": 4,
          "attributes": {
            "POSITION": 0,
            "NORMAL": 1,
            "TEXCOORD_0": 2
          },
          "indices": 3,
          "material": 0
        }
      ]
    },
    {
      "primitives": [
        {
          "mode": 4,
          "attributes": {
            "POSITION": 4,
            "NORMAL": 5,
            "TEXCOORD_0": 6
          },
          "indices": 7,
          "material": 0
        }
      ]
    }
  ]
}