{
  "accessors": [
    {
      "bufferView": 2,
      "componentType": 5126,
      "count": 24,
      "max": [
        0.37999996542930603,
        -0.08000003546476364,
        0.5299999713897705
      ],
      "min": [
        -0.37999996542930603,
        -0.0899999663233757,
        -5.960464477539063e-08
      ],
      "type": "VEC3"
    },
    {
      "bufferView": 2,
      "byteOffset": 288,
      "componentType": 5126,
      "count": 24,
      "max": [
        1.0,
        1.0,
        1.0
      ],
      "min": [
        -1.0,
        -1.0,
        -1.0
      ],
      "type": "VEC3"
    },
    {
      "bufferView": 1,
      "componentType": 5126,
      "count": 24,
      "max": [
        0.875,
        1.0
      ],
      "min": [
        0.125,
        0.0
      ],
      "type": "VEC2"
    },
    {
      "bufferView": 0,
      "componentType": 5125,
      "count": 36,
      "type": "SCALAR"
    },
    {
      "bufferView": 2,
      "byteOffset": 576,
      "componentType": 5126,
      "count": 288,
      "max": [
        0.37999996542930603,
        -0.06000000238418579,
        0.5299999713897705
      ],
      "min": [
        -0.37999996542930603,
        -0.07999999821186066,
        0.019999980926513672
      ],
      "type": "VEC3"
    },
    {
      "bufferView": 2,
      "byteOffset": 4032,
      "componentType": 5126,
      "count": 288,
      "max": [
        1.0,
        1.0,
        1.0
      ],
      "min": [
        -1.0,
        -1.0,
        -1.0
      ],
      "type": "VEC3"
    },
    {
      "bufferView": 1,
      "byteOffset": 192,
      "componentType": 5126,
      "count": 288,
      "max": [
        0.875,
        1.0
      ],
      "min": [
        0.125,
        0.0
      ],
      "type": "VEC2"
    },
    {
      "bufferView": 0,
      "byteOffset": 144,
      "componentType": 5125,
      "count": 636,
      "type": "SCALAR"
    },
    {
      "bufferView": 2,
      "byteOffset": 7488,
      "componentType": 5126,
      "count": 68,
      "max": [
        0.40000003576278687,
        -0.06000003218650818,
        0.5499999523162842
      ],
      "min": [
        -0.3999999761581421,
        -0.07999996840953827,
        -5.960464477539063e-08
      ],
      "type": "VEC3"
    },
    {
      "bufferView": 2,
      "byteOffset": 8304,
      "componentType": 5126,
      "count": 68,
      "max": [
        1.0,
        1.0,
        1.0
      ],
      "min": [
        -1.0,
        -1.0,
        -1.0
      ],
      "type": "VEC3"
    },
    {
      "bufferView": 1,
      "byteOffset": 2496,
      "componentType": 5126,
      "count": 68,
      "max": [
        0.875,
        1.0
      ],
      "min": [
        0.125,
        0.0
      ],
      "type": "VEC2"
    },
    {
      "bufferView": 0,
      "byteOffset": 2688,
      "componentType": 5125,
      "count": 102,
      "type": "SCALAR"
    },
    {
      "bufferView": 2,
      "byteOffset": 9120,
      "componentType": 5126,
      "count": 660,
      "max": [
        0.4500000476837158,
        0.09999996423721313,
        0.5999999642372131
      ],
      "min": [
        -0.44999998807907104,
        -0.09999996423721313,
        -0.6000000834465027
      ],
      "type": "VEC3"
    },
    {
      "bufferView": 2,
      "byteOffset": 17040,
      "componentType": 5126,
      "count": 660,
      "max": [
        1.0,
        1.0,
        1.0
      ],
      "min": [
        -1.0,
        -1.0,
        -1.0
      ],
      "type": "VEC3"
    },
    {
      "bufferView": 1,
      "byteOffset": 3040,
      "componentType": 5126,
      "count": 660,
      "max": [
        0.875,
        1.0
      ],
      "min": [
        0.125,
        0.0
      ],
      "type": "VEC2"
    },
    {
      "bufferView": 0,
      "byteOffset": 3096,
      "componentType": 5125,
      "count": 1002,
      "type": "SCALAR"
    },
    {
      "bufferView": 2,
      "byteOffset": 24960,
      "componentType": 5126,
      "count": 192,
      "max": [
        0.47981220483779907,
        -0.0803755447268486,
        0.6396244168281555
      ],
      "min": [
        -0.47981220483779907,
        -0.11962440609931946,
        0.6003755927085876
      ],
      "type": "VEC3"
    },
    {
      "bufferView": 2,
      "byteOffset": 27264,
      "componentType": 5126,
      "count": 192,
      "max": [
        1.0,
        0.9951844215393066,
        0.9951852560043335
      ],
      "min": [
        -1.0,
        -0.9951845407485962,
        -0.9951852560043335
      ],
      "type": "VEC3"
    },
    {
      "bufferView": 1,
      "byteOffset": 8320,
      "componentType": 5126,
      "count": 192,
      "max": [
        1.0,
        1.0
      ],
      "min": [
        0.0,
        0.01000000536441803
      ],
      "type": "VEC2"
    },
    {
      "bufferView": 0,
      "byteOffset": 7104,
      "componentType": 5125,
      "count": 372,
      "type": "SCALAR"
    },
    {
      "bufferView": 2,
      "byteOffset": 29568,
      "componentType": 5126,
      "count": 24,
      "max": [
        0.5,
        -0.07000003010034561,
        0.6500000357627869
      ],
      "min": [
        -0.5,
        -0.12999999523162842,
        0.6100000143051147
      ],
      "type": "VEC3"
    },
    {
      "bufferView": 2,
      "byteOffset": 29856,
      "componentType": 5126,
      "count": 24,
      "max": [
        1.0,
        1.0,
        1.0
      ],
      "min": [
        -1.0,
        -1.0,
        -1.0
      ],
      "type": "VEC3"
    },
    {
      "bufferView": 1,
      "byteOffset": 9856,
      "componentType": 5126,
      "count": 24,
      "max": [
        0.875,
        1.0
      ],
      "min": [
        0.125,
        0.0
      ],
      "type": "VEC2"
    },
    {
      "bufferView": 0,
      "byteOffset": 8592,
      "componentType": 5125,
      "count": 36,
      "type": "SCALAR"
    },
    {
      "bufferView": 2,
      "byteOffset": 30144,
      "componentType": 5126,
      "count": 512,
      "max": [
        0.45500001311302185,
        -0.09800226986408234,
        0.6050000190734863
      ],
      "min": [
        -0.45499998331069946,
        -0.11699770390987396,
        0.3049999475479126
      ],
      "type": "VEC3"
    },
    {
      "bufferView": 2,
      "byteOffset": 36288,
      "componentType": 5126,
      "count": 512,
      "max": [
        1.0,
        1.0,
        1.0
      ],
      "min": [
        -1.0,
        -1.0,
        -1.0
      ],
      "type": "VEC3"
    },
    {
      "bufferView": 1,
      "byteOffset": 10048,
      "componentType": 5126,
      "count": 512,
      "max": [
        0.875,
        1.0
      ],
      "min": [
        0.125,
        0.0
      ],
      "type": "VEC2"
    },
    {
      "bufferView": 0,
      "byteOffset": 8736,
      "componentType": 5125,
      "count": 828,
      "type": "SCALAR"
    },
    {
      "bufferView": 2,
      "byteOffset": 42432,
      "componentType": 5126,
      "count": 24,
      "max": [
        0.37999996542930603,
        -0.05000024288892746,
        -5.960464477539063e-08
      ],
      "min": [
        -0.37999996542930603,
        -0.06000017374753952,
        -0.5300000905990601
      ],
      "type": "VEC3"
    },
    {
      "bufferView": 2,
      "byteOffset": 42720,
      "componentType": 5126,
      "count": 24,
      "max": [
        1.0,
        1.0,
        1.0
      ],
      "min": [
        -1.0,
        -1.0,
        -1.0
      ],
      "type": "VEC3"
    },
    {
      "bufferView": 1,
      "byteOffset": 14144,
      "componentType": 5126,
      "count": 24,
      "max": [
        0.875,
        1.0
      ],
      "min": [
        0.125,
        0.0
      ],
      "type": "VEC2"
    },
    {
      "bufferView": 0,
      "byteOffset": 12048,
      "componentType": 5125,
      "count": 36,
      "type": "SCALAR"
    },
    {
      "bufferView": 2,
      "byteOffset": 43008,
      "componentType": 5126,
      "count": 300,
      "max": [
        0.37999996542930603,
        -0.03999999910593033,
        -0.020289987325668335
      ],
      "min": [
        -0.37999996542930603,
        -0.06000000238418579,
        -0.5302900075912476
      ],
      "type": "VEC3"
    },
    {
      "bufferView": 2,
      "byteOffset": 46608,
      "componentType": 5126,
      "count": 300,
      "max": [
        1.0,
        1.0,
        1.0
      ],
      "min": [
        -1.0,
        -1.0,
        -1.0
      ],
      "type": "VEC3"
    },
    {
      "bufferView": 1,
      "byteOffset": 14336,
      "componentType": 5126,
      "count": 300,
      "max": [
        0.875,
        1.0
      ],
      "min": [
        0.125,
        0.0
      ],
      "type": "VEC2"
    },
    {
      "bufferView": 0,
      "byteOffset": 12192,
      "componentType": 5125,
      "count": 666,
      "type": "SCALAR"
    },
    {
      "bufferView": 2,
      "byteOffset": 50208,
      "componentType": 5126,
      "count": 68,
      "max": [
        0.40000003576278687,
        -0.04000009596347809,
        -5.960464477539063e-08
      ],
      "min": [
        -0.3999999761581421,
        -0.06000003218650818,
        -0.5500000715255737
      ],
      "type": "VEC3"
    },
    {
      "bufferView": 2,
      "byteOffset": 51024,
      "componentType": 5126,
      "count": 68,
      "max": [
        1.0,
        1.0,
        1.0
      ],
      "min": [
        -1.0,
        -1.0,
        -1.0
      ],
      "type": "VEC3"
    },
    {
      "bufferView": 1,
      "byteOffset": 16736,
      "componentType": 5126,
      "count": 68,
      "max": [
        0.875,
        1.0
      ],
      "min": [
        0.125,
        0.0
      ],
      "type": "VEC2"
    },
    {
      "bufferView": 0,
      "byteOffset": 14856,
      "componentType": 5125,
      "count": 102,
      "type": "SCALAR"
    }
  ],
  "asset": {
    "extras": {
      "author": "robinsoncode1010 (https://sketchfab.com/robinsoncode1010)",
      "license": "SKETCHFAB Standard (https://sketchfab.com/licenses)",
      "source": "https://sketchfab.com/3d-models/ventana-9df5104b6245461fb7a58eb983c628af",
      "title": "Ventana"
    },
    "generator": "Sketchfab-15.50.0",
    "version": "2.0"
  },
  "bufferViews": [
    {
      "buffer": 0,
      "byteLength": 15264,
      "name": "floatBufferViews",
      "target": 34963
    },
    {
      "buffer": 0,
      "byteLength": 17280,
      "byteOffset": 15264,
      "byteStride": 8,
      "name": "floatBufferViews",
      "target": 34962
    },
    {
      "buffer": 0,
      "byteLength": 51840,
      "byteOffset": 32544,
      "byteStride": 12,
      "name": "floatBufferViews",
      "target": 34962
    }
  ],
  "buffers": [
    {
      "byteLength": 84384,
      "uri": "scene.bin"
    }
  ],
  "extensionsUsed": [
    "KHR_materials_specular"
  ],
  "materials": [
    {
      "doubleSided": true,
      "name": "Cuarteros__0",
      "pbrMetallicRoughness": {
        "baseColorFactor": [
          0.5897160829442527,
          0.5897160829442527,
          0.5897160829442527,
          1.0
        ],
        "metallicFactor": 0.0,
        "roughnessFactor": 0.5348587729029269
      }
    },
    {
      "alphaMode": "BLEND",
      "doubleSided": true,
      "extensions": {
        "KHR_materials_specular": {
          "specularColorFactor": [
            1.0,
            1.0,
            1.0
          ],
          "specularFactor": 0.0
        }
      },
      "name": "Cristal",
      "pbrMetallicRoughness": {
        "baseColorFactor": [
          0.0,
          0.0,
          0.0,
          0.0
        ],
        "roughnessFactor": 0.9619139946294374
      }
    }
  ],
  "meshes": [
    {
      "name": "Cristales_Cristal_0",
      "primitives": [
        {
          "attributes": {
            "NORMAL": 1,
            "POSITION": 0,
            "TEXCOORD_0": 2
          },
          "indices": 3,
          "material": 1,
          "mode": 4
        }
      ]
    },
    {
      "name": "Cuarteros__0",
      "primitives": [
        {
          "attributes": {
            "NORMAL": 5,
            "POSITION": 4,
            "TEXCOORD_0": 6
          },
          "indices": 7,
          "material": 0,
          "mode": 4
        }
      ]
    },
    {
      "name": "Hojas__0",
      "primitives": [
        {
          "attributes": {
            "NORMAL": 9,
            "POSITION": 8,
            "TEXCOORD_0": 10
          },
          "indices": 11,
          "material": 0,
          "mode": 4
        }
      ]
    },
    {
      "name": "Marco__0",
      "primitives": [
        {
          "attributes": {
            "NORMAL": 13,
            "POSITION": 12,
            "TEXCOORD_0": 14
          },
          "indices": 15,
          "material": 0,
          "mode": 4
        }
      ]
    },
    {
      "name": "Cilindro__0",
      "primitives": [
        {
          "attributes": {
            "NORMAL": 17,
            "POSITION": 16,
            "TEXCOORD_0": 18
          },
          "indices": 19,
          "material": 0,
          "mode": 4
        }
      ]
    },
    {
      "name": "Cubo.003__0",
      "primitives": [
        {
          "attributes": {
            "NORMAL": 21,
            "POSITION": 20,
            "TEXCOORD_0": 22
          },
          "indices": 23,
          "material": 0,
          "mode": 4
        }
      ]
    },
    {
      "name": "Cubo.004__0",
      "primitives": [
        {
          "attributes": {
            "NORMAL": 25,
            "POSITION": 24,
            "TEXCOORD_0": 26
          },
          "indices": 27,
          "material": 0,
          "mode": 4
        }
      ]
    },
    {
      "name": "Cristales.001_Cristal_0",
      "primitives": [
        {
          "attributes": {
            "NORMAL": 29,
            "POSITION": 28,
            "TEXCOORD_0": 30
          },
          "indices": 31,
          "material": 1,
          "mode": 4
        }
      ]
    },
    {
      "name": "Cuarteros.001__0",
      "primitives": [
        {
          "attributes": {
            "NORMAL": 33,
            "POSITION": 32,
            "TEXCOORD_0": 34
          },
          "indices": 35,
          "material": 0,
          "mode": 4
        }
      ]
    },
    {
      "name": "Hojas.001__0",
      "primitives": [
        {
          "attributes": {
            "NORMAL": 37,
            "POSITION": 36,
            "TEXCOORD_0": 38
          },
          "indices": 39,
          "material": 0,
          "mode": 4
        }
      ]
    }
  ],
  "nodes": [
    {
      "children": [
        1
      ],
      "matrix": [
        1.0,
        0.0,
        0.0,
        0.0,
        0.0,
        2.220446049250313e-16,
        -1.0,
        0.0,
        0.0,
        1.0,
        2.220446049250313e-16,
        0.0,
        0.0,
        0.0,
        0.0,
        1.0
      ],
      "name": "Sketchfab_model"
    },
    {
      "children": [
        2
      ],
      "matrix": [
        0.009999999776482582,
        0.0,
        0.0,
        0.0,
        0.0,
        0.0,
        0.009999999776482582,
        0.0,
        0.0,
        -0.009999999776482582,
        0.0,
        0.0,
        0.0,
        0.0,
        0.0,
        1.0
      ],
      "name": "5faabb3f386a4bbab8230ca675187e95.fbx"
    },
    {
      "children": [
        3
      ],
      "name": "RootNode"
    },
    {
      "children": [
        4,
        6,
        8,
        10,
        12,
        19
      ],
      "matrix": [
        70.073974609375,
        0.0,
        0.0,
        0.0,
        0.0,
        -1.141649955104532e-05,
        -70.07397460937408,
        0.0,
        0.0,
        70.07397460937408,
        -1.141649955104532e-05,
        0.0,
        0.0,
        0.0,
        0.0,
        1.0
      ],
      "name": "Ventana"
    },
    {
      "children": [
        5
      ],
      "matrix": [
        1.4270633459091187,
        0.0,
        0.0,
        0.0,
        0.0,
        1.4270633459091187,
        -5.2939559203393765e-23,
        0.0,
        0.0,
        5.2939559203393765e-23,
        1.4270633459091187,
        0.0,
        0.0,
        0.0,
        0.0,
        1.0
      ],
      "name": "Cristales"
    },
    {
      "mesh": 0,
      "name": "Cristales_Cristal_0"
    },
    {
      "children": [
        7
      ],
      "matrix": [
        1.4270633459091187,
        0.0,
        0.0,
        0.0,
        0.0,
        1.4270633459091187,
        -5.2939559203393765e-23,
        0.0,
        0.0,
        5.2939559203393765e-23,
        1.4270633459091187,
        0.0,
        0.0,
        0.0,
        0.0,
        1.0
      ],
      "name": "Cuarteros"
    },
    {
      "mesh": 1,
      "name": "Cuarteros__0"
    },
    {
      "children": [
        9
      ],
      "matrix": [
        1.4270633459091187,
        0.0,
        0.0,
        0.0,
        0.0,
        1.4270633459091187,
        -5.2939559203393765e-23,
        0.0,
        0.0,
        5.2939559203393765e-23,
        1.4270633459091187,
        0.0,
        0.0,
        0.0,
        0.0,
        1.0
      ],
      "name": "Hojas"
    },
    {
      "mesh": 2,
      "name": "Hojas__0"
    },
    {
      "children": [
        11
      ],
      "matrix": [
        1.4270633459091187,
        0.0,
        0.0,
        0.0,
        0.0,
        1.4270633459091187,
        -5.2939559203393765e-23,
        0.0,
        0.0,
        5.2939559203393765e-23,
        1.4270633459091187,
        0.0,
        0.0,
        0.0,
        0.0,
        1.0
      ],
      "name": "Marco"
    },
    {
      "mesh": 3,
      "name": "Marco__0"
    },
    {
      "children": [
        13,
        15,
        17
      ],
      "matrix": [
        0.13668864965438843,
        0.0,
        0.0,
        0.0,
        0.0,
        0.13668864965438843,
        -3.308722450212111e-24,
        0.0,
        0.0,
        3.308722450212111e-24,
        0.13668864965438843,
        0.0,
        0.0,
        -0.2008037567138672,
        0.8990498781204224,
        1.0
      ],
      "name": "Persiana"
    },
    {
      "children": [
        14
      ],
      "matrix": [
        10.440245628356934,
        0.0,
        0.0,
        0.0,
        0.0,
        10.440245628356934,
        0.0,
        0.0,
        0.0,
        0.0,
        10.440245628356934,
        0.0,
        0.0,
        1.4690591096878052,
        -6.57735538482666,
        1.0
      ],
      "name": "Cilindro"
    },
    {
      "mesh": 4,
      "name": "Cilindro__0"
    },
    {
      "children": [
        16
      ],
      "matrix": [
        10.440245628356934,
        0.0,
        0.0,
        0.0,
        0.0,
        10.440245628356934,
        0.0,
        0.0,
        0.0,
        0.0,
        10.440245628356934,
        0.0,
        0.0,
        1.4690591096878052,
        -6.57735538482666,
        1.0
      ],
      "name": "Cubo.003"
    },
    {
      "mesh": 5,
      "name": "Cubo.003__0"
    },
    {
      "children": [
        18
      ],
      "matrix": [
        10.440245628356934,
        0.0,
        0.0,
        0.0,
        0.0,
        10.440245628356934,
        0.0,
        0.0,
        0.0,
        0.0,
        10.440245628356934,
        0.0,
        0.0,
        1.4690591096878052,
        -6.57735538482666,
        1.0
      ],
      "name": "Cubo.004"
    },
    {
      "mesh": 6,
      "name": "Cubo.004__0"
    },
    {
      "children": [
        20,
        22,
        24
      ],
      "matrix": [
        0.1526295244693756,
        0.0,
        0.0,
        0.0,
        0.0,
        0.1526295244693756,
        -3.30872245021211e-24,
        0.0,
        0.0,
        3.30872245021211e-24,
        0.1526295244693756,
        0.0,
        1.0632450475611677e-08,
        -0.12949219346046448,
        -0.013797911815345287,
        1.0
      ],
      "name": "Ventana Abajo"
    },
    {
      "children": [
        21
      ],
      "matrix": [
        9.349852561950684,
        0.0,
        0.0,
        0.0,
        0.0,
        9.349852561950684,
        2.117582368135751e-22,
        0.0,
        0.0,
        -2.117582368135751e-22,
        9.349852561950684,
        0.0,
        -6.966183008216831e-08,
        0.848408579826355,
        0.8272296190261841,
        1.0
      ],
      "name": "Cristales.001"
    },
    {
      "mesh": 7,
      "name": "Cristales.001_Cristal_0"
    },
    {
      "children": [
        23
      ],
      "matrix": [
        9.349852561950684,
        0.0,
        0.0,
        0.0,
        0.0,
        9.349852561950684,
        2.117582368135751e-22,
        0.0,
        0.0,
        -2.117582368135751e-22,
        9.349852561950684,
        0.0,
        -6.966183008216831e-08,
        0.848408579826355,
        0.8272296190261841,
        1.0
      ],
      "name": "Cuarteros.001"
    },
    {
      "mesh": 8,
      "name": "Cuarteros.001__0"
    },
    {
      "children": [
        25
      ],
      "matrix": [
        9.349852561950684,
        0.0,
        0.0,
        0.0,
        0.0,
        9.349852561950684,
        2.117582368135751e-22,
        0.0,
        0.0,
        -2.117582368135751e-22,
        9.349852561950684,
        0.0,
        -6.966183008216831e-08,
        0.848408579826355,
        0.8272296190261841,
        1.0
      ],
      "name": "Hojas.001"
    },
    {
      "mesh": 9,
      "name": "Hojas.001__0"
    }
  ],
  "scene": 0,
  "scenes": [
    {
      "name": "Sketchfab_Scene",
      "nodes": [
        0
      ]
    }
  ]
}
