{
  "accessors": [
    {
      "bufferView": 2,
      "componentType": 5126,
      "count": 303,
      "max": [
        0.7056620121002197,
        0.9964380264282227,
        -0.5944960117340088
      ],
      "min": [
        -0.7056620121002197,
        0.6151909828186035,
        -0.791504979133606
      ],
      "type": "VEC3"
    },
    {
      "bufferView": 2,
      "byteOffset": 3636,
      "componentType": 5126,
      "count": 303,
      "max": [
        0.6887428164482117,
        0.9989476203918457,
        0.09921396523714066
      ],
      "min": [
        -0.6887387633323669,
        -0.9989455342292786,
        -0.7260670065879822
      ],
      "type": "VEC3"
    },
    {
      "bufferView": 3,
      "componentType": 5126,
      "count": 303,
      "max": [
        1.0,
        0.9993777871131897,
        0.1799326241016388,
        1.0
      ],
      "min": [
        -0.9999886751174927,
        -0.999365508556366,
        -0.16330552101135254,
        1.0
      ],
      "type": "VEC4"
    },
    {
      "bufferView": 1,
      "componentType": 5126,
      "count": 303,
      "max": [
        0.994342029094696,
        0.8911569714546204
      ],
      "min": [
        0.35351601243019104,
        0.8574219942092896
      ],
      "type": "VEC2"
    },
    {
      "bufferView": 0,
      "componentType": 5125,
      "count": 1200,
      "type": "SCALAR"
    },
    {
      "bufferView": 2,
      "byteOffset": 7272,
      "componentType": 5126,
      "count": 270,
      "max": [
        0.7056620121002197,
        0.9964380264282227,
        -0.5944960117340088
      ],
      "min": [
        -0.7056620121002197,
        0.6151909828186035,
        -0.791504979133606
      ],
      "type": "VEC3"
    },
    {
      "bufferView": 2,
      "byteOffset": 10512,
      "componentType": 5126,
      "count": 270,
      "max": [
        0.743635356426239,
        0.09930064529180527,
        0.996171236038208
      ],
      "min": [
        -0.7436354160308838,
        -0.09930074214935303,
        -0.9962708950042725
      ],
      "type": "VEC3"
    },
    {
      "bufferView": 3,
      "byteOffset": 4848,
      "componentType": 5126,
      "count": 270,
      "max": [
        1.0,
        0.05549676716327667,
        0.7416900396347046,
        1.0
      ],
      "min": [
        0.6684644222259521,
        -0.05611468851566315,
        -0.7417060136795044,
        1.0
      ],
      "type": "VEC4"
    },
    {
      "bufferView": 1,
      "byteOffset": 2424,
      "componentType": 5126,
      "count": 270,
      "max": [
        0.5582110285758972,
        0.7425100207328796
      ],
      "min": [
        0.01171880029141903,
        0.4619140028953552
      ],
      "type": "VEC2"
    },
    {
      "bufferView": 0,
      "byteOffset": 4800,
      "componentType": 5125,
      "count": 1008,
      "type": "SCALAR"
    },
    {
      "bufferView": 2,
      "byteOffset": 13752,
      "componentType": 5126,
      "count": 158,
      "max": [
        0.5693259835243225,
        -0.010928300209343433,
        0.791504979133606
      ],
      "min": [
        -0.5693259835243225,
        -0.11741799861192703,
        -0.4625430107116699
      ],
      "type": "VEC3"
    },
    {
      "bufferView": 2,
      "byteOffset": 15648,
      "componentType": 5126,
      "count": 158,
      "max": [
        1.0,
        0.0,
        0.8291082978248596
      ],
      "min": [
        -1.0,
        -0.6139810681343079,
        -0.9999134540557861
      ],
      "type": "VEC3"
    },
    {
      "bufferView": 3,
      "byteOffset": 9168,
      "componentType": 5126,
      "count": 158,
      "max": [
        0.9999899864196777,
        0.2769000828266144,
        1.0,
        1.0
      ],
      "min": [
        -0.9999133944511414,
        -0.2815420627593994,
        -1.0,
        1.0
      ],
      "type": "VEC4"
    },
    {
      "bufferView": 1,
      "byteOffset": 4584,
      "componentType": 5126,
      "count": 158,
      "max": [
        0.597944974899292,
        0.8960409760475159
      ],
      "min": [
        0.13183599710464478,
        0.8867189884185791
      ],
      "type": "VEC2"
    },
    {
      "bufferView": 0,
      "byteOffset": 8832,
      "componentType": 5125,
      "count": 468,
      "type": "SCALAR"
    },
    {
      "bufferView": 2,
      "byteOffset": 17544,
      "componentType": 5126,
      "count": 414,
      "max": [
        0.5693259835243225,
        -0.010928300209343433,
        0.791504979133606
      ],
      "min": [
        -0.5693259835243225,
        -0.08747769892215729,
        -0.4625430107116699
      ],
      "type": "VEC3"
    },
    {
      "bufferView": 2,
      "byteOffset": 22512,
      "componentType": 5126,
      "count": 414,
      "max": [
        0.2540220022201538,
        1.0,
        0.5176532864570618
      ],
      "min": [
        -0.01919509842991829,
        0.8555905222892761,
        0.0
      ],
      "type": "VEC3"
    },
    {
      "bufferView": 3,
      "byteOffset": 11696,
      "componentType": 5126,
      "count": 414,
      "max": [
        0.0012605965603142977,
        0.5176532864570618,
        -0.8555905222892761,
        1.0
      ],
      "min": [
        -0.001261361176148057,
        0.0,
        -1.0,
        1.0
      ],
      "type": "VEC4"
    },
    {
      "bufferView": 1,
      "byteOffset": 5848,
      "componentType": 5126,
      "count": 414,
      "max": [
        0.6601870059967041,
        0.4617590010166168
      ],
      "min": [
        0.2148440033197403,
        0.0546875
      ],
      "type": "VEC2"
    },
    {
      "bufferView": 0,
      "byteOffset": 10704,
      "componentType": 5125,
      "count": 2244,
      "type": "SCALAR"
    },
    {
      "bufferView": 2,
      "byteOffset": 27480,
      "componentType": 5126,
      "count": 414,
      "max": [
        0.5693259835243225,
        -0.04888340085744858,
        0.7681779861450195
      ],
      "min": [
        -0.5693259835243225,
        -0.11741799861192703,
        -0.4625430107116699
      ],
      "type": "VEC3"
    },
    {
      "bufferView": 2,
      "byteOffset": 32448,
      "componentType": 5126,
      "count": 414,
      "max": [
        0.017186496406793594,
        -0.8555901050567627,
        0.0
      ],
      "min": [
        -0.2288980782032013,
        -1.0,
        -0.5176540613174438
      ],
      "type": "VEC3"
    },
    {
      "bufferView": 3,
      "byteOffset": 18320,
      "componentType": 5126,
      "count": 414,
      "max": [
        0.0012487812200561166,
        0.5176540017127991,
        -0.8555900454521179,
        1.0
      ],
      "min": [
        -0.0012765348656103015,
        0.0,
        -1.0,
        1.0
      ],
      "type": "VEC4"
    },
    {
      "bufferView": 1,
      "byteOffset": 9160,
      "componentType": 5126,
      "count": 414,
      "max": [
        0.9997699856758118,
        0.864201009273529
      ],
      "min": [
        0.5585939884185791,
        0.4609380066394806
      ],
      "type": "VEC2"
    },
    {
      "bufferView": 0,
      "byteOffset": 19680,
      "componentType": 5125,
      "count": 2244,
      "type": "SCALAR"
    },
    {
      "bufferView": 2,
      "byteOffset": 37416,
      "componentType": 5126,
      "count": 8,
      "max": [
        0.01897750049829483,
        -0.052678901702165604,
        0.1257610023021698
      ],
      "min": [
        -0.01897750049829483,
        -0.09063400328159332,
        0.08780580013990402
      ],
      "type": "VEC3"
    },
    {
      "bufferView": 2,
      "byteOffset": 37512,
      "componentType": 5126,
      "count": 8,
      "max": [
        0.6666668057441711,
        0.6666668057441711,
        0.8164969086647034
      ],
      "min": [
        -0.6666668057441711,
        -0.6666668057441711,
        -0.8164969086647034
      ],
      "type": "VEC3"
    },
    {
      "bufferView": 3,
      "byteOffset": 24944,
      "componentType": 5126,
      "count": 8,
      "max": [
        0.9128710627555847,
        0.23570194840431213,
        0.9428092241287231,
        1.0
      ],
      "min": [
        -0.9128710627555847,
        -0.23570194840431213,
        -0.9428092241287231,
        1.0
      ],
      "type": "VEC4"
    },
    {
      "bufferView": 1,
      "byteOffset": 12472,
      "componentType": 5126,
      "count": 8,
      "max": [
        0.016601599752902985,
        0.0
      ],
      "min": [
        0.016601599752902985,
        0.0
      ],
      "type": "VEC2"
    },
    {
      "bufferView": 0,
      "byteOffset": 28656,
      "componentType": 5125,
      "count": 36,
      "type": "SCALAR"
    },
    {
      "bufferView": 2,
      "byteOffset": 37608,
      "componentType": 5126,
      "count": 1192,
      "max": [
        0.7285640239715576,
        1.0,
        0.6988829970359802
      ],
      "min": [
        -0.7285640239715576,
        -1.0,
        -0.7087699770927429
      ],
      "type": "VEC3"
    },
    {
      "bufferView": 2,
      "byteOffset": 51912,
      "componentType": 5126,
      "count": 1192,
      "max": [
        0.9996862411499023,
        0.9991409778594971,
        0.9989561438560486
      ],
      "min": [
        -0.9996862411499023,
        -0.9991877675056458,
        -0.9989197850227356
      ],
      "type": "VEC3"
    },
    {
      "bufferView": 3,
      "byteOffset": 25072,
      "componentType": 5126,
      "count": 1192,
      "max": [
        0.9907160997390747,
        0.9999964833259583,
        0.9641995429992676,
        1.0
      ],
      "min": [
        -0.995688259601593,
        -0.9996709227561951,
        -0.9999060034751892,
        -1.0
      ],
      "type": "VEC4"
    },
    {
      "bufferView": 1,
      "byteOffset": 12536,
      "componentType": 5126,
      "count": 1192,
      "max": [
        0.9699500203132629,
        0.604773998260498
      ],
      "min": [
        0.0,
        0.0
      ],
      "type": "VEC2"
    },
    {
      "bufferView": 0,
      "byteOffset": 28800,
      "componentType": 5125,
      "count": 6312,
      "type": "SCALAR"
    }
  ],
  "asset": {
    "extras": {
      "author": "Geug (https://sketchfab.com/Geug)",
      "license": "CC-BY-4.0 (http://creativecommons.org/licenses/by/4.0/)",
      "source": "https://sketchfab.com/3d-models/chair-001-freebie-2bc9f5edea3c4012893ff5ba08a32209",
      "title": "Chair 001 Freebie"
    },
    "generator": "Sketchfab-12.66.0",
    "version": "2.0"
  },
  "bufferViews": [
    {
      "buffer": 0,
      "byteLength": 54048,
      "name": "floatBufferViews",
      "target": 34963
    },
    {
      "buffer": 0,
      "byteLength": 22072,
      "byteOffset": 54048,
      "byteStride": 8,
      "name": "floatBufferViews",
      "target": 34962
    },
    {
      "buffer": 0,
      "byteLength": 66216,
      "byteOffset": 76120,
      "byteStride": 12,
      "name": "floatBufferViews",
      "target": 34962
    },
    {
      "buffer": 0,
      "byteLength": 44144,
      "byteOffset": 142336,
      "byteStride": 16,
      "name": "floatBufferViews",
      "target": 34962
    }
  ],
  "buffers": [
    {
      "byteLength": 186480,
      "uri": "scene.bin"
    }
  ],
  "images": [
    {
      "uri": "textures/1001_baseColor.jpeg"
    },
    {
      "uri": "textures/1001_metallicRoughness.png"
    },
    {
      "uri": "textures/1001_normal.jpeg"
    }
  ],
  "materials": [
    {
      "name": "1001",
      "normalTexture": {
        "index": 2
      },
      "occlusionTexture": {
        "index": 1
      },
      "pbrMetallicRoughness": {
        "baseColorTexture": {
          "index": 0
        },
        "metallicRoughnessTexture": {
          "index": 1
        }
      }
    }
  ],
  "meshes": [
    {
      "name": "defaultMaterial",
      "primitives": [
        {
          "attributes": {
            "NORMAL": 1,
            "POSITION": 0,
            "TANGENT": 2,
            "TEXCOORD_0": 3
          },
          "indices": 4,
          "material": 0,
          "mode": 4
        }
      ]
    },
    {
      "name": "defaultMaterial",
      "primitives": [
        {
          "attributes": {
            "NORMAL": 6,
            "POSITION": 5,
            "TANGENT": 7,
            "TEXCOORD_0": 8
          },
          "indices": 9,
          "material": 0,
          "mode": 4
        }
      ]
    },
    {
      "name": "defaultMaterial",
      "primitives": [
        {
          "attributes": {
            "NORMAL": 11,
            "POSITION": 10,
            "TANGENT": 12,
            "TEXCOORD_0": 13
          },
          "indices": 14,
          "material": 0,
          "mode": 4
        }
      ]
    },
    {
      "name": "defaultMaterial",
      "primitives": [
        {
          "attributes": {
            "NORMAL": 16,
            "POSITION": 15,
            "TANGENT": 17,
            "TEXCOORD_0": 18
          },
          "indices": 19,
          "material": 0,
          "mode": 4
        }
      ]
    },
    {
      "name": "defaultMaterial",
      "primitives": [
        {
          "attributes": {
            "NORMAL": 21,
            "POSITION": 20,
            "TANGENT": 22,
            "TEXCOORD_0": 23
          },
          "indices": 24,
          "material": 0,
          "mode": 4
        }
      ]
    },
    {
      "name": "defaultMaterial",
      "primitives": [
        {
          "attributes": {
            "NORMAL": 26,
            "POSITION": 25,
            "TANGENT": 27,
            "TEXCOORD_0": 28
          },
          "indices": 29,
          "material": 0,
          "mode": 4
        }
      ]
    },
    {
      "name": "defaultMaterial",
      "primitives": [
        {
          "attributes": {
            "NORMAL": 31,
            "POSITION": 30,
            "TANGENT": 32,
            "TEXCOORD_0": 33
          },
          "indices": 34,
          "material": 0,
          "mode": 4
        }
      ]
    }
  ],
  "nodes": [
    {
      "children": [
        1
      ],
      "matrix": [
        0.5099685192108154,
        0.0,
        0.0,
        0.0,
        0.0,
        1.1323575837236875e-16,
        -0.5099685192108154,
        0.0,
        0.0,
        0.5099685192108154,
        1.1323575837236875e-16,
        0.0,
        0.0,
        0.0,
        0.0,
        1.0
      ],
      "name": "Sketchfab_model"
    },
    {
      "children": [
        2,
        4,
        6,
        8,
        10,
        12,
        14
      ],
      "matrix": [
        1.0,
        0.0,
        0.0,
        0.0,
        0.0,
        -4.371139006309477e-08,
        0.999999999999999,
        0.0,
        0.0,
        -0.999999999999999,
        -4.371139006309477e-08,
        0.0,
        0.0,
        0.0,
        0.0,
        1.0
      ],
      "name": "Collada visual scene group"
    },
    {
      "children": [
        3
      ],
      "name": "g"
    },
    {
      "mesh": 0,
      "name": "defaultMaterial"
    },
    {
      "children": [
        5
      ],
      "name": "g"
    },
    {
      "mesh": 1,
      "name": "defaultMaterial"
    },
    {
      "children": [
        7
      ],
      "name": "g"
    },
    {
      "mesh": 2,
      "name": "defaultMaterial"
    },
    {
      "children": [
        9
      ],
      "name": "g"
    },
    {
      "mesh": 3,
      "name": "defaultMaterial"
    },
    {
      "children": [
        11
      ],
      "name": "g"
    },
    {
      "mesh": 4,
      "name": "defaultMaterial"
    },
    {
      "children": [
        13
      ],
      "name": "g"
    },
    {
      "mesh": 5,
      "name": "defaultMaterial"
    },
    {
      "children": [
        15
      ],
      "name": "g"
    },
    {
      "mesh": 6,
      "name": "defaultMaterial"
    }
  ],
  "samplers": [
    {
      "magFilter": 9729,
      "minFilter": 9987,
      "wrapS": 10497,
      "wrapT": 10497
    }
  ],
  "scene": 0,
  "scenes": [
    {
      "name": "Sketchfab_Scene",
      "nodes": [
        0
      ]
    }
  ],
  "textures": [
    {
      "sampler": 0,
      "source": 0
    },
    {
      "sampler": 0,
      "source": 1
    },
    {
      "sampler": 0,
      "source": 2
    }
  ]
}
